<?xml version="1.0" encoding="utf-8"?>
<!-- Generator: Adobe Illustrator 19.2.0, SVG Export Plug-In . SVG Version: 6.00 Build 0)  -->
<svg version="1.1" id="Calque_1" xmlns="http://www.w3.org/2000/svg" xmlns:xlink="http://www.w3.org/1999/xlink" x="0px" y="0px"
	 viewBox="0 0 301.2 3.2" style="enable-background:new 0 0 301.2 3.2;" xml:space="preserve">
<style type="text/css">
	.st0{fill:#CDA980;}
</style>
<g>
	<line x1="0" y1="1.6" x2="301" y2="1.6"/>
	<g>
		<g>
			<g>
				<path class="st0" d="M301.1,1.6c0.2,0,0.1,0-0.4,0l-0.3,0L301.1,1.6z"/>
				<path class="st0" d="M298.2,1.6c-0.5,0-1.1,0-0.8,0c0.5,0,0.6,0,1.2,0c0.4,0,0.8,0,0.7,0c0.2,0,0.6,0,0.9,0
					C299.6,1.6,298.9,1.6,298.2,1.6C298,1.6,298.2,1.6,298.2,1.6z"/>
				<path class="st0" d="M255.5,1.3l0.3,0C255.7,1.4,255.6,1.3,255.5,1.3z"/>
				<path class="st0" d="M229,1.1c0.2,0,0.3,0,0.3-0.1C229.2,1.1,229,1.1,229,1.1z"/>
				<path class="st0" d="M224.5,0.8c0.1,0,0.2,0,0.3,0C224.7,0.8,224.6,0.8,224.5,0.8z"/>
				<path class="st0" d="M255.5,1.3l-0.7-0.1C254.8,1.3,255.2,1.3,255.5,1.3z"/>
				<path class="st0" d="M292.3,1.7c0.1,0,0.3,0,0.4,0L292.3,1.7L292.3,1.7z"/>
				<path class="st0" d="M267.2,1.3l0.2,0c0.1,0,0.1,0,0.2-0.1L267.2,1.3z"/>
				<path class="st0" d="M276.1,1.3c-0.2,0-0.3,0.1-0.4,0.1C275.9,1.4,276,1.4,276.1,1.3C276.2,1.4,276.2,1.4,276.1,1.3z"/>
				<path class="st0" d="M290.3,1.6l0.3,0C290.5,1.6,290.4,1.6,290.3,1.6z"/>
				<path class="st0" d="M260.8,1.2C260.7,1.2,260.7,1.2,260.8,1.2C260.7,1.2,260.7,1.2,260.8,1.2z"/>
				<path class="st0" d="M10.4,1.8C10.4,1.8,10.4,1.8,10.4,1.8C10.4,1.8,10.3,1.8,10.4,1.8z"/>
				<polygon class="st0" points="0,1.6 0.2,1.6 0.2,1.6 				"/>
				<path class="st0" d="M216.3,0.5C216.3,0.5,216.3,0.5,216.3,0.5C216.5,0.4,216.4,0.4,216.3,0.5z"/>
				<path class="st0" d="M140.4,0.4c0.9,0.2-1.4,0.3-0.1,0.6C140.2,0.9,141.4,0.6,140.4,0.4z"/>
				<path class="st0" d="M292.1,1.7l-0.4,0C291.9,1.7,292,1.7,292.1,1.7z"/>
				<path class="st0" d="M140.3,1L140.3,1l0.1,0C140.3,1.1,140.3,1.1,140.3,1z"/>
				<path class="st0" d="M197.2,0.5c0,0,0.1,0.1,0.2,0.1C197.4,0.6,197.4,0.6,197.2,0.5z"/>
				<path class="st0" d="M211.4,0.9l-0.4,0C211.2,0.9,211.3,0.9,211.4,0.9z"/>
				<path class="st0" d="M189.9,0.8c-0.2,0-0.3-0.1-0.5,0c0,0,0,0,0.1,0C189.5,0.8,189.6,0.8,189.9,0.8z"/>
				<path class="st0" d="M182.2,0.8c0,0,0.1,0,0.1,0.1c0.1,0,0.2,0,0.2,0L182.2,0.8z"/>
				<path class="st0" d="M33.7,2.1c-0.2,0-0.3-0.1-0.4-0.1C33.5,2.1,32.4,2.1,33.7,2.1z"/>
				<path class="st0" d="M292.3,1.7c0,0-0.1,0-0.2,0C292.2,1.7,292.3,1.7,292.3,1.7C292.4,1.7,292.4,1.7,292.3,1.7z"/>
				<path class="st0" d="M189.5,2.9l-1.2,0C188.7,2.9,189.1,2.9,189.5,2.9z"/>
				<path class="st0" d="M88.7,2.6l-0.3,0C88.6,2.6,88.7,2.6,88.7,2.6z"/>
				<path class="st0" d="M184.7,3c-0.2-0.1-0.4-0.1-0.7-0.2c-0.1,0-0.1,0-0.1,0.1L184.7,3z"/>
				<path class="st0" d="M33.4,2L33.4,2L33.4,2z"/>
				<path class="st0" d="M25.3,2.2c1.2,0,0.5-0.1,0.8-0.2c1.4,0,0.6,0.1,1.1,0.2c0.9,0,1.5-0.1,2.2-0.1c0,0,0.2,0,0,0.1
					c0.9-0.1,2.7,0,3.8-0.1c0.1,0,0.1,0,0.1,0c-0.2-0.1-0.2-0.2-0.2-0.2c0.5,0,1-0.1,1.2,0c-0.3,0-0.3,0-0.5,0.1l0.5,0
					C34.9,2,33.7,1.9,33.7,2c1.1,0,2.3-0.2,3.1-0.1C37,2,34.9,1.9,36,2.1L34.7,2c1,0.3-0.8,0,0.1,0.2c1.7,0.1,1.9-0.1,3.5,0
					c0.4-0.1-0.1-0.1,0.2-0.2c2.4-0.2,1.9,0.5,3.6,0.2c0.4-0.1,0.6-0.3,1.9-0.2l-0.4,0.2c1.6,0,0.9-0.3,2.6-0.1
					c-0.3,0.1-1.3,0.1-1,0.1c1.1,0.2,0.8-0.1,1.6-0.1L47,2.3c1.7,0,3.6-0.1,5.5-0.2c-0.1,0.1-0.4,0.1,0,0.2c2.4-0.1,5.1,0.1,7.4,0.2
					l0.9-0.2c0.2,0,0.4,0.1,0.2,0.1c0.9,0.1,0-0.1,0.5-0.2c0.5,0,0.7,0.1,0.4,0.2c1.6-0.2,4.5-0.4,6.2-0.1l-0.3,0.1
					c1.3,0.1,1.5-0.4,2.7-0.2l-0.2,0c2.8,0.1,5.9-0.1,8.1,0.3c0.4-0.3,2.8,0.2,3-0.3c1.6,0.2,1.1,0.3,3.4,0.5c0.6,0,0.9-0.3,1.7-0.4
					l0,0.3l1-0.3l0.5,0.3l0.7-0.1c-0.3,0-0.6-0.1-0.6-0.2c1.1-0.1,2.7,0.2,2.7,0.3l2.6-0.2c-0.1,0.1-0.5,0.1-0.8,0.2
					c1.4-0.3,0.3,0.3,1.5,0C93.7,2.7,94,2.6,94,2.6c0.6,0.2,2.1,0.2,3.1,0.1L97,2.9c1.9,0.1,4.1-0.1,6.2-0.1c-0.8-0.1-0.6-0.4,0-0.5
					l0.3,0.3c0.4-0.2-0.7-0.1,0.2-0.3c0.8,0,0.5,0.3,0.1,0.4l1-0.1c0.1,0.1-0.2,0.1-0.2,0.3c0.4-0.2,1.7,0.3,2.3,0l0.1,0.1
					c2.2,0,3.1-0.1,4.9-0.1c0-0.3,0.7-0.2,1.2-0.4c1.3,0.1,2.7,0.3,4.3,0.3c1.1-0.1,0.3-0.2,0.8-0.4c0.1,0.2,1.6,0.2,0.8,0.4
					c1.9,0,2.4,0,4.8-0.2c-0.3-0.1-0.5-0.1-0.4-0.2c0.4,0,1,0.1,0.9,0.2l-0.1,0c2.7-0.4,6.1,0.7,8.2,0.2l-0.1,0l2.2-0.3
					c1,0-0.6,0.2,0.1,0.3c2.4-0.4,3.7,0.1,5.7-0.2c1.5,0.8,5.4,0,7.4,0.4l-0.1-0.2c0.5-0.2,0.6,0.1,1,0.1c-0.1-0.1-0.6-0.2-0.2-0.3
					c4.5-0.2,9.2,0.3,13.8,0.4c1.7,0,0.9-0.9,3.1-0.5l-0.6,0.3c3.4-0.4,6.9,0,10.2-0.3c-0.2,0.1-0.2,0.2-0.5,0.2
					c0.7,0.2,2.6,0,2.6-0.2c0.5,0,0.1,0.2,0.4,0.3c0.7,0.1,1.8-0.3,2.1-0.1c0.1,0-0.2,0.1-0.3,0.1c0.5-0.1,2.1,0,1.7-0.2
					c1.2,0.1,2.4-0.1,3.4,0c0.6-0.3,2.1,0.1,2.3-0.3c-0.1,0.4,2.2,0.3,3,0.1c-0.3,0.1,0.7,0.1,0.4,0.3c0.9,0,1.7-0.1,1.6-0.3
					c1.6,0.5,3.3-0.4,4.2,0.2c2.7-0.2,5.1-0.4,7.5-0.5c-0.1,0.4-2.6,0.1-2.5,0.5c2.3-0.2,3.6-0.5,5.8-0.4c0.6,0.1-0.3,0.2-0.5,0.2
					c2.3-0.2,4.4,0,6.4-0.2c0,0-0.2,0.1-0.4,0.1c0.4,0,0.9,0.1,0.9-0.1l-0.4,0c-0.6-0.3,1.6-0.5,1.6-0.7c-0.7,0.5,2,0.1,0.9,0.8
					c0.3,0,0.6-0.1,0.5-0.2c0.4,0,0.5,0.1,0.1,0.2c1.4-0.1,0.9-0.3,2.2-0.3c0,0.1-0.3,0.1-0.4,0.2c0.7-0.2,1.3-0.3,2.4-0.3
					c-0.1,0,0.1,0.1-0.3,0.1c1.9,0,3.2-0.4,5.2-0.3c-0.6,0.3,0.7,0.1,0.8,0.4l1.1-0.1L226,2.2c1,0,1.8-0.2,2.7-0.1L228,2.2l1.8-0.1
					l-1-0.1c1-0.2-0.1-0.5,1.2-0.4c-0.3,0,1,0,1.5,0h0c0.5,0,1,0,1.7,0c0.2,0.1-0.1,0.4,0,0.4c0.5-0.2,2.3,0,2.9-0.3
					c-0.2,0.1-0.2,0.2-0.1,0.2l0.4-0.2c0.4,0.1,0.5,0.1,0.4,0.2c1.3,0-0.4-0.3,1.2-0.2c-0.1,0-0.1,0-0.3,0.1c1.6,0.1,3.1-0.1,4.6,0
					c0.4,0.3-1.3,0.1-0.8,0.3c2.1-0.1,4.4-0.3,6.5-0.3l-0.4,0c0.3-0.3,1.5,0.2,2.6,0c-0.3,0-0.3,0.2-0.3,0.1c1.4,0,2.9-0.1,5-0.2
					l-0.3,0.1c0.8,0.1,2.2,0,3.1,0.1c0.3-0.1,0.8-0.1,0.5-0.2c2.8,0.4,5.3-0.2,7.7,0.1c-0.3,0-0.7,0.1-0.5,0.1l2.1-0.1
					c-0.2-0.1-0.3-0.1-0.7-0.1c0.3-0.1,0.9-0.1,1.4-0.1c-0.9,0.1,0,0.2,0.4,0.2c-0.1,0,0.1-0.1,0-0.1c1.1,0.2,0.2-0.2,1.7-0.1
					L270,1.7c0.6,0,1.1-0.1,1.7-0.1c0.2,0.1-0.6,0.1-0.6,0.1c0.8,0,1.7-0.2,2.4-0.1c-0.4,0-0.9,0-1.2,0.1c0.8,0.1,0.9,0.1,1.5,0.1
					l-0.1,0l1.4,0l-0.4,0c1.1-0.3,2.2-0.1,3.6-0.2c-1.4,0.1-0.2,0.1-0.3,0.2c0.4,0,0.9,0.1,0.8,0.1c0.7-0.1,1.1,0,2.1-0.1
					c0,0,0.7,0,0.6,0.1c0.9,0-0.2,0-0.1-0.1c1.3-0.1,3.2,0.1,5.1-0.1c1.7-0.1,2-0.1,3.5-0.2c0.5,0-0.4,0.1-0.4,0.1
					c0.8,0,1.5,0,2.3,0c-0.2,0,0,0,0.2,0c0.6,0,0.4-0.1,1.3,0c-0.1,0-0.3,0-0.6,0.1c0.7,0,1.5,0,2.3-0.1c0.2,0-0.5,0-0.7,0
					c0.9,0,2.3,0,2.5-0.1l-0.6,0c0.3,0,0.2,0-0.1,0c-0.8,0-1.1,0-1.1,0l0.6,0c-0.6-0.1-2.2,0-3.4,0l0.5-0.1l-1.1,0.1
					c-0.2,0-0.4-0.1,0.1-0.1c-0.8,0-0.7,0-1.4,0c-0.1,0,0,0,0,0l-0.8,0c0.2,0-0.1-0.1,0.4,0c-1.4-0.1-2.3,0.1-2.8,0l0.1,0
					c-2,0-0.2,0.1-1.7,0.1l-1-0.2l-0.2,0.1c-0.2,0-0.6,0-0.5,0c-0.7,0.1,0.1,0-0.3,0.1c-1-0.1-2.7,0-2.9-0.1
					c-0.3,0.1,0.9,0.1-0.1,0.1c-0.3-0.2-1.2,0-2.1-0.1c0.3-0.1,1.1,0,0.2-0.1c-0.5,0.1-1.7,0-2.5,0c0,0.1-1.6,0-2.9,0.1
					c0.1,0-2.4-0.1-3.5-0.2l0,0c-0.2,0.2-1.4,0.1-2.3,0.2c0-0.1,0.2-0.1,0.7-0.2l-0.8,0c-0.2,0.1-0.5,0.1-1,0.1l0.2-0.1
					c-1.1,0-2.2,0.1-3.6,0c-0.1,0.1,1.1,0.4-0.4,0.4c-0.1-0.1-0.1-0.2,0.3-0.2c-0.1,0-0.5,0.1-0.7,0l0.6-0.1
					c-0.6-0.1-0.3,0.1-0.8,0.1c0-0.1-0.4-0.1-0.3-0.2c0.1,0,0.4,0,0.6,0c-0.6,0-1.3-0.1-1.5-0.2c0.1,0.1,0,0.1-0.4,0.1
					c-1.1,0-0.4-0.1-1-0.2c-0.3,0.1-1,0-1,0.1c-0.3,0-0.4-0.1-0.5-0.1c-0.6,0.1-2.6,0-2,0.2l0.1,0.1c0,0-0.1,0.1-0.1,0.1h0h0
					c-1.9,0-3.9-0.2-5.7-0.2l0-0.1c-1.1,0.1-2.4,0-3.2,0.1c-0.3,0-0.8-0.1-0.6-0.2c-0.8,0-0.9,0.1-2.2,0c0.8-0.1-0.3-0.1,0.9-0.1
					c-1.1-0.1-1.3-0.2-2.5,0c0.4-0.2-0.8-0.2-1.3-0.2l0.8,0.1c-0.6,0-1.1,0-1.6,0l0.3-0.2c-2.2-0.3-4,0.5-5.7,0
					c-0.6,0.2,1.2,0.1,0.7,0.3c-1,0-2.1-0.4-2.4-0.4c-1.4-0.1-1.3,0.4-2.8,0.3c0.2,0.1,0.4,0.3-0.7,0.4c-1,0-1.3-0.4-0.6-0.5
					c0.2,0,0.4,0,0.4,0.1c0.3,0,0.8-0.1,0.4-0.2L229.6,1c-0.5-0.1-1.9-0.1-1.6-0.2c-0.8,0.1-0.3,0.1,0.2,0.2c-1.3-0.1-2.1,0-3.4-0.1
					C225,0.9,225.2,1,225,1c-2-0.1-0.9,0.2-2.2,0.2C222,1.1,223,0.9,221.7,1c-0.8-0.1-0.2-0.3,0.2-0.3c-1.2,0.2-2.3-0.1-3-0.2
					l0.7-0.1c-0.4,0-0.7,0-1,0l0.4,0.2c-0.4,0-0.7,0-0.7-0.1c-0.4,0.1,0.3,0.3-0.5,0.5c-0.5-0.1-1.6,0.1-1.7-0.2
					c1.6,0.1-0.2-0.3,1.2-0.3c-0.3,0-0.6,0-1,0c-0.1,0,0.1-0.1,0.2-0.1c-1.5-0.2-0.7,0.3-2.3,0.3c0.2-0.1-0.4-0.3-0.6-0.3
					c0.6,0,0.3,0.3-0.3,0.4c-1-0.1-1.1,0.1-1.6,0.1L212,1c-0.2,0.2-0.7,0.1-1.4,0.2C210.5,1,211.2,1.1,211,1
					c-0.8,0.3-1.8-0.3-2.9-0.1c-0.5-0.1,0-0.3-0.5-0.4c-1.2,0.2-1.3-0.2-2.6-0.1c0.4,0.2,0.4,0.2-0.5,0.4l2.1-0.1L205.2,1
					c0.6,0,1.4-0.1,1.7-0.1c-0.7,0.2-0.6,0.1-0.3,0.3c-0.9-0.3-1.7,0.2-2.8,0l0-0.5c-1.5-0.2-2.7,0.3-4.7,0.1l0.6,0.1
					c-0.3,0.2-1.2,0-1.9,0.1c0.1-0.2-0.3-0.2-0.6-0.4c0,0.1-1.5,0-1.6,0.3l-0.9-0.2c-1.6-0.1-1.8,0.5-3.4,0.5
					c0.5-0.2-0.2-0.3,0.8-0.5c-0.5,0-1,0-1,0.1c-0.3-0.1-1.4,0.2-1.9,0.1c-0.2,0.1-0.3,0.3-0.9,0.3c-0.1,0,0-0.1,0-0.1
					c0,0.1-0.9,0.1-0.4,0.3c-1.6-0.6-4.4,0-5.8-0.5c-1.1,0.1-2.5,0.1-3.5,0.1c0.1-0.1,0-0.1,0.2-0.1c-1.4-0.2-0.9,0.6-2.5,0.4
					c-0.8-0.3,0.9-0.2,0.3-0.3c-0.2-0.6-1.9,0.1-3-0.3l0.3,0c-0.8-0.2-2,0.2-3.4,0.2c0,0,0.1-0.1,0-0.1c-0.9,0.3-2.7,0.4-4,0.5
					c0.4-0.3,0.6-0.1,0.3-0.4c-0.6,0,0.2,0.4-1,0.5c-0.4-0.1-1.2-0.3-1.3-0.5l1.1,0c-0.6-0.4-1.4,0-2-0.1l0.1-0.2
					c-1.7,0-1.7,0.4-3.5,0.4l0.2,0.1c-1,0.4-0.8-0.2-1.8,0.1l-0.3-0.4c-0.7,0.1-2.3,0.4-3.4,0.5c0.7-0.3,2-0.4,2.9-0.6
					c-0.6,0-2.2,0-2.5,0.2c0.3,0,0.6-0.1,0.8-0.1c-0.8,0.3-1.8,0.5-3.1,0.5c0.2-0.8-3.3-0.2-4.3-0.8c-2.3,0.3-4.5-0.1-7.2-0.1
					c0.9,0.6-0.8,0-0.6,0.6c-0.6,0-0.9,0-0.9,0l-1.9-0.4c-0.4-0.2,0.6-0.1,0.5-0.3c-1.3,0-0.6-0.3-1.5-0.4c0.2,0.2-0.5,0.3-1.2,0.2
					l1.1,0.3c-1.9,0.3-1.6-0.5-3.5-0.2l0.6-0.2c-1,0.1-3.6,0-4.6,0.5c-0.2-0.1-0.4-0.2,0-0.3c-2.3-0.1-5.2,0.5-7,0.2l0.2-0.1
					c-0.4,0-0.8,0.3-1.3,0.1c0-0.1,0.2-0.1,0-0.2c-0.2,0.1-1.2,0.3-1.7,0.2l0.5-0.2c-2.3-0.2-3.5,0.4-5.4,0.5c0-0.4-1.8-0.6-2.7-0.6
					l0-0.1c-2.6,0-4.5,0.4-7,0.5c-1.5-0.4-5.2-0.2-7.6-0.4c0.4,0.1-0.1,0.3-0.5,0.3c-0.6-0.1-1.6,0.3-1.5-0.1l0.2,0
					c-0.4-0.4-1.6-0.2-2.5-0.3l-0.2,0.5c-2.4-0.7-6.3,0.3-7.6-0.3c-0.6,0.1-1.3,0.1-1.9,0.2l0-0.2c-1.6,0-2.4-0.1-4.4,0l0.4-0.2
					c-1.1,0-1.4,0.7-2.5,0.7l-0.3-0.3c-2,0-3.9-0.3-5.9,0.1c0,0,0.1-0.1,0.4-0.2c-0.9,0-3.6-0.2-3.2,0.2c0-0.3-2,0-3.1,0.1l0.2-0.2
					c-0.9,0.3-0.9,0.3-2.2,0.4c-0.3,0-0.3-0.2,0.1-0.1c-1-0.1-0.8,0.2-2,0.1L62,1c-1,0-0.9,0.1-1.5,0.2c-0.6,0.1-1.9,0-2.1-0.2
					c-0.1,0.1-0.7,0.2-1.3,0.2c-0.1-0.1,0.1-0.1,0.2-0.1c-1.7-0.1-2.5,0.2-3.7,0.1c0-0.1-0.1-0.1-0.2-0.1c1.3,0,2.4,0,2.3,0
					c0-0.2-1.1-0.2-0.2-0.4c-0.9,0.1-2.4,0.4-3.4,0.3c-0.1,0-0.1,0-0.1-0.1l0.1,0c-0.2,0-0.5,0-0.7,0c-0.3,0-0.6,0-0.9,0
					c-0.1-0.1-1.2-0.1-1.8-0.1c0,0.2-0.7,0.1,0,0.3c-0.1,0,0.1,0,0.5,0c0.1,0,0.2,0,0.2,0l0,0c0.4,0,0.8,0,1.3,0
					c-0.4,0.1-0.9,0.2-1.5,0.1c-0.3,0.1-0.6,0.2-0.8,0.3c-0.7-0.2-2.2-0.3-2.4-0.5c-1.7,0.1-3.9,0.1-4.9,0.4c-0.5,0-0.5-0.1-0.7-0.1
					c0.3,0,0.6,0,0.7-0.1c-0.9,0.1-2.8,0-3,0.2c-1.2-0.1,0.7-0.2-1-0.1l0.2-0.1c-3.2-0.2-5.2,0.5-8.8,0.2c0.2,0,0.4,0,0.4,0
					c-4.1-0.1-8.4,0.1-12.4,0c-1.1,0-1.3,0-2,0.1l-0.2-0.1l-1.2,0.1c-1.7,0-2.9-0.1-5,0l0.3,0c-0.8,0-2.4,0-2.3,0
					c-0.1,0-0.3,0-0.5,0l0,0l-1.9,0c-1.5,0,0.2,0-1.9,0c-0.7,0-1.7,0-2,0c0.3,0,0.7,0,0.8,0l-0.7,0c-0.1,0-0.7,0,1.1,0l1.2,0l0.4,0
					l-1,0c0.6,0,1,0,1.4,0c0.1,0,0.3,0,0.5,0l1.2,0c0.1,0-0.5,0,0.3,0c0.6,0-0.5,0,0.4,0c0.6,0,0.4,0,1.1,0c0.1,0,0,0-0.3,0
					c0.6,0,1.6,0,2,0c0.6,0,2.1,0,2,0.1c0.2,0,1.1,0,1.7,0c-1,0.1,2.1,0,1.9,0.2c0.8-0.1,2.8,0,4.1,0c-0.1,0-0.2,0-0.3,0
					c0.8,0,1,0.1,1.5,0.1c0.1-0.1,1.3-0.1,1.9-0.2c0.9,0.1-0.6,0.1-0.3,0.2c0-0.1,1.6-0.1,1.3-0.2c0.7,0.1,0.6,0,1,0.2
					c0.1-0.2,0.7,0,1.3-0.1c1,0.1,0.3,0.2,1.4,0.1C26.4,2.1,25.3,2.2,25.3,2.2z M52.5,2.1L52.5,2.1c-0.2,0-0.4,0-0.6,0
					C52,2.1,52.2,2.1,52.5,2.1z M54.7,2.1c-0.3,0-0.6,0-1,0C53.7,2,53.8,1.9,54,2C53.9,2,54.4,2,54.7,2.1z M49.9,0.9
					c0.4,0,0.5,0,0.5,0C50.3,0.9,50.1,0.9,49.9,0.9C49.8,1,49.8,1,49.8,1C49.8,0.9,49.8,0.9,49.9,0.9z"/>
				<path class="st0" d="M49.3,1.1c-0.1,0-0.1,0-0.1,0C49.2,1.1,49.3,1.1,49.3,1.1c0.1,0,0.2,0,0.2,0C49.4,1.1,49.3,1.1,49.3,1.1z"
					/>
				<path class="st0" d="M255.8,1.4L255.8,1.4C255.8,1.4,255.9,1.4,255.8,1.4C255.9,1.4,255.9,1.4,255.8,1.4z"/>
				<polygon class="st0" points="86.2,2.7 86.2,2.6 86,2.7 				"/>
				<path class="st0" d="M268.4,1.8c0,0,0.1,0,0.2,0C268.5,1.9,268.5,1.9,268.4,1.8z"/>
				<path class="st0" d="M273.8,1.8l0.8,0C274.2,1.9,274,1.8,273.8,1.8z"/>
				<path class="st0" d="M278,1.9C278,1.8,278,1.8,278,1.9L278,1.9L278,1.9z"/>
				<path class="st0" d="M211.7,2.5c-0.1,0-0.1,0-0.2,0C211.2,2.6,211.4,2.6,211.7,2.5z"/>
				<path class="st0" d="M231.4,1.9C231.2,2,231,2,230.8,2C231.1,2,231.4,2,231.4,1.9z"/>
				<path class="st0" d="M189.7,2.9L189.7,2.9c0,0-0.1,0-0.1,0L189.7,2.9z"/>
				<path class="st0" d="M229.9,2c0.4,0,0.6,0,0.9,0C230.5,2,230.2,2,229.9,2z"/>
				<path class="st0" d="M296,1.7l0.2,0c0,0,0,0,0,0L296,1.7z"/>
				<path class="st0" d="M296.3,1.7l0.2,0C296.4,1.7,296.3,1.7,296.3,1.7z"/>
				<path class="st0" d="M297,1.7l-0.5,0C296.6,1.7,296.8,1.7,297,1.7z"/>
				<path class="st0" d="M290.5,1.7L290.5,1.7C290.5,1.7,290.5,1.7,290.5,1.7z"/>
				<path class="st0" d="M288.8,1.8c0.4,0,1,0,1.6,0l0.1,0C290.2,1.8,289.2,1.7,288.8,1.8z"/>
				<path class="st0" d="M281.8,1.5l1.4,0c-0.2,0-0.6-0.1,0.1-0.1C281.5,1.3,283.7,1.5,281.8,1.5z"/>
				<path class="st0" d="M277.5,1.4C278.2,1.4,277.5,1.3,277.5,1.4C277,1.3,276.9,1.4,277.5,1.4z"/>
				<path class="st0" d="M246,1.2l0.1-0.2C245.5,1,246.1,1.1,246,1.2z"/>
				<polygon class="st0" points="240,2.1 240.5,2.2 240.8,2 				"/>
				<polygon class="st0" points="236.4,0.8 236.7,0.8 235.7,0.8 				"/>
				<path class="st0" d="M183.5,0.6l0.2,0.3C184.1,0.8,184.2,0.5,183.5,0.6z"/>
				<path class="st0" d="M160.7,0.9c-0.2-0.2-0.9-0.3-1.3-0.1C159.9,0.8,160.5,0.9,160.7,0.9z"/>
				<polygon class="st0" points="92.3,0.5 92.7,0.4 91.8,0.5 				"/>
			</g>
		</g>
	</g>
</g>
</svg>
