<?xml version="1.0" encoding="utf-8"?>
<!-- Generator: Adobe Illustrator 19.2.0, SVG Export Plug-In . SVG Version: 6.00 Build 0)  -->
<svg version="1.1" id="Calque_1" xmlns="http://www.w3.org/2000/svg" xmlns:xlink="http://www.w3.org/1999/xlink" x="0px" y="0px"
	 viewBox="0 0 319.1 70.3" style="enable-background:new 0 0 319.1 70.3;" xml:space="preserve">
<style type="text/css">
	.st0{fill:#C69C6D;}
</style>
<path class="st0" d="M317.9,41.2c-0.6,2.2-0.5,3.9,0,6c-0.3-0.4-0.6,0-1.1,0.6c0.1,1.7,1.4,1.1,0.8,3.3c-0.4-0.4-1.1-0.9-1.6-1.7
	c0.3,2,1.1,3.9,1.4,6c-0.7,0.5-1-1.2-1.5-2c0.3,2.3,0.6,5.9,1.7,6.7l0.3-1.1c-0.2,0.2-0.9-0.1-1-0.6c-0.8-2,0.4-2.8,0.8-2.9L318,57
	c2.3-1.5-0.4-5.8-0.2-8.8l1.3,1v19.7c-0.1-0.3-0.3-0.7-0.7-1c0.4-1.2,0.3-2.7-0.4-4.2c0.3-0.4,0.6,0,0.9,0.1c-0.6-1.4-1.8-2.9-3-2
	c1.3,1.3,0.7,1.7,2.2,3.1c0.2,1.1-0.4,2-0.9,1.8c0.1,0.1,0.1,0.4,0.1,0.6c-0.4-0.2-0.9-0.4-1.5-0.5l-3.2,1.1l-1-0.9l2.7-0.1
	c-1.6-0.9-2.5-0.1-3.6,0.4c-0.3-0.5-0.7-0.8-1.4-1l-3.2,1.8c-0.4-0.7,1.4-1.4-0.7-1.8c-1.5,0.8,1.4,1.6-1,2.2
	c-1.5-0.8-1.1-1.5-2.9-0.8c-0.2-0.4,0.1-0.7,0.6-0.9c-1.6,0.5-4.1,0.2-4.9,1.2c-1.6-1-5.5,0.3-5.3-1.5c-0.5,0.4-2.9,1.4-4.3,1.5
	c2.7-2.1-5.5-0.1-4.8-2.4c-2,1.9-7.2,0.8-10.8,1.9c0.2-0.1,0.5-0.3,0.7-0.4c-1.9-0.2-2.4-0.7-3.7-1.1c-0.2,1.6-3.4,1.9-5,2.9
	c-2.5-1.5,1.5-1.8,0.7-3.3c0.1,1.3-4.3,1.3-3.4,2.3c-1.9-0.9-1.6-0.5-2.6-1.8c-0.3,2-1.8,0.3-3.3,1.5c-2.7-1-0.7-1.8-3.7-1.2
	c-1.4-0.6,1.2-1.3,1.2-1.3c-3,0-1.4,1.4-2.1,2.3c-3.6,0.4-1.7-1.1-2.9-1.8c-2.3,0.4-4,1.8-5.7,1.7c-0.1-0.2-0.5-0.3-0.1-0.6
	c-2.4,1.2-7.1,0.1-9.9,1.5c-0.2-0.1-0.2-0.2-0.3-0.3c0.4,0.7,0.5,1.4,0.4,2c-1.4,0-2.5,0.9-3,0c0.8,0,0.9-0.4,1.3-0.7l-1.4,0.4
	c-1.3-1.4,2-0.5,2-1.5c-2.8,0.5-6,1.6-8.2,1.2c-0.4-1.4,5-0.5,2.1-1.7l3.3,0.5c-2.5-2.1,2,0.1-0.3-2.1c-4.3-0.4-4.9,0.7-9.2,0.3
	c-1,0.8,0.3,1.1-0.7,1.9c-6.1,1.4-4.8-3.4-9.4-1.6c-1.2,0.9-1.6,2.6-4.8,1.7l1.1-1.5c-4.2-0.1-2.4,2.2-6.8,1.2
	c0.8-0.6,3.3-0.5,2.7-0.7c-2.8-1.2-2,0.9-4.2,0.9l-0.5-1.4C191.9,67,187,68,182,68.2c0.3-0.4,1.1-0.8,0-1.2
	c-6.3,0.7-13.3-0.2-19.4-1l-2.3,1.2c-0.5,0-1-0.5-0.4-0.8c-2.3-0.5-0.1,0.7-1.2,1.2c-1.3,0.1-1.8-0.7-0.9-1
	c-4.1,1-11.8,2.1-16.2,0.9l0.8-0.3c-3.4-0.5-3.8,2.4-7,1.3l0.6-0.2c-7.4-0.5-15.5,0.6-21.2-1.2c-1.1,1.7-7.3-0.8-7.8,1.6
	c-4.2-1.2-3-1.6-8.9-2.4c-1.6-0.1-2.4,1.5-4.3,1.7l0-1.2L91.1,68l-1.4-1.5l-1.8,0.3c0.7,0.1,1.5,0.6,1.4,0.9c-2.9,0.6-7-0.9-7.1-1.5
	l-6.8,1c0.1-0.3,0.6-0.5,1.2-0.7c-2,0.4,0-1.5-3-0.5c0.5,0.3-0.2,0.7-0.3,1c-1.7-0.8-5.4-0.8-8.2-0.4l0.5-0.8
	c-5-0.2-10.6,0.4-16.3,0.4c2,0.4,1.6,1.9-0.1,2L48.6,67c-1.1,0.8,1.7,0.5-0.5,1.5c-2.1-0.2-1.4-1.5-0.2-1.9L45.4,67
	c-0.1-0.4,0.5-0.6,0.6-1.1c-1.1,0.8-4.4-1.3-6,0.1l-0.1-0.4c-5.6,0-8.2,0.4-12.8,0.5c-0.1,1.1-1.9,0.9-3.3,1.8
	c-3.4-0.4-7.1-1.2-11.2-1.1c-2.9,0.6-0.8,1-2.1,1.6c-0.2-1-4.3-0.9-2.2-1.7c-1.1,0-2,0.1-2.9,0.1c-0.4,0-0.8,0-1.2,0.1l-0.5,0
	l-0.2,0c-0.6,0.2-1.3,0.3-2.2,0.6c-0.1,0-0.2-0.1-0.2-0.3c-0.4,0.6-0.6,1.2-1,1.3c-0.1-0.2,0-0.7,0.2-1.1c0.2-0.4,0.5-0.7,0.7-0.8
	l0.1,0.1c-0.2-0.2-0.3-0.6-0.3-1c0-0.2,0-0.4,0-0.6c0-0.5,0-0.9,0.1-1.4c0.2-1.9,0.5-3.9,0.9-5.8c0.6-3.7,1.2-7.3,0.3-10l-1.1-5.7
	c0.2-2.6,0.8,1.6,1.4-0.4C0.6,35.6,2.6,32,1.4,26.9c3-3.9-0.2-14,1.7-19.3L2.4,7.9c-0.4-0.7-0.2-1.1,0-1.5c0-0.1,0.1-0.2,0.2-0.2
	c0.1,0,0.1,0,0.2,0c0.1,0,0.2,0,0.3-0.1C2.4,6,2.4,6.3,2,6.1C1.8,5.6,1.8,4.9,1.7,4.3c0.4,0,0.7,0,1.1,0.1l0.5,0.1l0.3,0l0.9,0
	c2.5,0.1,5,0.3,7.5,0.5c5,0.4,10,0.9,15,1.2c4.4,0.2,2.5-3.7,8-2l-1.6,1.3c8.8-1.6,18,0,26.7-1.3C59.6,4.5,59.6,5,58.8,5
	c1.8,1,6.7,0,6.8-0.7c1.3,0.1,0.3,0.7,1.1,1.1c1.8,0.6,4.6-1.2,5.6-0.3c0.1,0.1-0.1,0.2-0.4,0.3c1.6-0.2,4.9,0.1,3.9-0.9
	C79.1,5,82,4,84.6,4.6c1.7-1.2,5.5,0.6,6.1-1.2c-0.2,1.8,5.7,1.5,7.7,0.6c-0.7,0.5,1.8,0.6,1,1.3c2.3,0,4.5-0.4,4.1-1.3
	c4.3,2.2,8.7-1.7,11.1,1c7-1,13.4-1.6,19.6-2c-0.2,1.8-6.9,0.2-6.6,2.1c5.9-0.7,9.3-2.3,15.2-1.9c1.5,0.2-0.9,0.8-1.4,1.1
	c5.9-0.8,11.5,0.2,16.7-0.8c-0.9-1.1,3.7-2.2,4.4-2.9c-1.5,2.2,5.2,0.5,2.5,3.5c0.7-0.2,1.5-0.5,1.4-1.1c1,0.2,1.3,0.5,0.3,1.1
	c3.7-0.4,2.4-1.3,5.8-1.3c0,0.4-0.7,0.5-1,1c1.7-0.8,3.4-1.6,6.3-1.2c-0.1,0.2,0.1,0.5-0.4,0.5c4.7-0.2,8.1-2,13.4-1.3
	c-1.6,1.7,1.8,0.6,2.1,2.1l2.9-0.4l-1.2-0.7c2.5,0,4.8-1.1,6.9-0.6l-1.9,0.6l4.7-0.3L201.6,2c2.6-0.8-0.3-2.1,3.1-1.7
	c-0.7,0.1,2.5,0.7,3.8,0.7h0c1.2,0,2.5-0.8,4.4-0.4c0.5,0.5-0.4,1.8-0.1,2.1c1.2-1.2,5.7-0.3,7.4-1.5c-0.4,0.4-0.4,1-0.2,1.2l1-1
	c1.2,0.3,1.3,0.5,1.1,1.1c3.5,0.2-1.1-1.9,3.1-1.1c-0.3,0.1-0.2,0.2-0.9,0.4c4.2,0.4,8.1-0.6,12-0.1c1.1,1.5-3.4,0.4-2.1,1.6
	c5.6-0.3,11.5-1.8,16.9-1.4l-1-0.2c0.8-2.1,4,1,6.7,0c-0.7,0.2-0.9,1.2-0.7,0.9c3.7,0.4,7.5-0.5,13.1-1.2L268.7,2
	c2.2,0.5,5.7,0.3,8.1,0.5c0.7-0.5,2-0.5,1.2-1.2c7.2,3.1,13.8-1.7,20.2,0.9c-0.8,0-1.8,0.5-1.2,0.5l5.5-0.5
	c-0.4-0.9-0.7-0.6-1.9-1.3c0.5-0.4,1.5-0.7,2.5-0.9h0.8c-1.9,0.6,0.4,1.4,1.4,1.9c-0.2-0.3,0.2-0.6,0.1-0.9c2.9,1.6,0.5-1.9,4.4-0.8
	l-0.2,0.5c1.3-0.2,2.6-0.8,3.9-0.8c0.1,0,0.3,0,0.4,0c0.2,0.5-0.2,0.7-0.6,0.8c-0.2,0-0.4,0.1-0.6,0.2c-0.2,0.1-0.4,0.2-0.4,0.4
	c0.1,0,0.3,0,0.4,0c0.1,0,0.2,0,0.3-0.1c0.2,0,0.4-0.1,0.7-0.2c0.5-0.2,1-0.4,1.5-0.6c1.1-0.4,2.4-0.6,2.8-0.1
	c-1.1,0.3-2.2,0.3-3.1,0.6c0.5,0.6,0.7,0.8,1,0.9c0.2,0.1,0.5,0.1,0.9,0.2c0,0,0,0.1,0,0.2c0,0,0.2,0,0.2,0c0,0,0.2,0,0.2,0.1
	c0,0,0,0,0,0c0,0.1-0.2,0.2-0.3,0.3c0,0.3-0.2,0.6-0.3,0.9c-0.1,0.4-0.2,0.8-0.3,1c0-0.1,0-0.1,0.1-0.2c0.1-0.2,0.2-0.4,0.2-0.4
	c0.7,0,1.1,0.5,1.3,1C318,5.6,318,6.2,318,7c0,1.5-0.1,3.2,0.8,5c-1.7-3.6-1-0.6-2.2-0.9c-0.3,1-0.7,2.4-1.1,2
	c1,1.8-0.8,2.9,0.7,5.4c-0.4,0.1,0,1.9-1,1.5c0.3,2.3,0.7-0.5,1.2-0.3c1.3,3.5-1.6,8.3,0.2,13.4c0.7,4,1.9,5,2.5,8.3v1.2
	C318.5,43.3,317.9,41.2,317.9,41.2z"/>
</svg>
